<svg width="17" height="17" viewBox="0 0 17 17" fill="none" xmlns="http://www.w3.org/2000/svg">
<path fill-rule="evenodd" clip-rule="evenodd" d="M8.77817 7.36396L14.435 1.70711C14.8256 1.31658 15.4587 1.31658 15.8492 1.70711C16.2398 2.09763 16.2398 2.7308 15.8492 3.12132L10.1924 8.77817L15.8492 14.435C16.2398 14.8256 16.2398 15.4587 15.8492 15.8492C15.4587 16.2398 14.8256 16.2398 14.435 15.8492L8.77817 10.1924L3.12132 15.8492C2.7308 16.2398 2.09763 16.2398 1.70711 15.8492C1.31658 15.4587 1.31658 14.8256 1.70711 14.435L7.36396 8.77817L1.70711 3.12132C1.31658 2.7308 1.31658 2.09763 1.70711 1.70711C2.09763 1.31658 2.7308 1.31658 3.12132 1.70711L8.77817 7.36396Z" fill="#17592A" stroke="#1A4384"/>
</svg>
