<svg width="30" height="18" viewBox="0 0 30 18" fill="none" xmlns="http://www.w3.org/2000/svg">
<path d="M24.626 3.61651L23.162 5.0805C24.9812 6.09273 26.5472 7.43137 27.7602 8.99985C24.9698 12.608 20.3113 14.9998 15 14.9998C14.4331 14.9998 13.8736 14.9726 13.323 14.9195L11.5513 16.6912C12.6673 16.8938 13.8206 16.9998 15 16.9998C21.2128 16.9998 26.7034 14.0561 29.8211 9.5706C30.0596 9.22747 30.0596 8.77222 29.8211 8.4291C28.483 6.50396 26.7078 4.86281 24.626 3.61651Z" fill="#FEDD3D"/>
<path d="M5.37402 14.3832C3.29221 13.1369 1.51701 11.4957 0.178875 9.5706C-0.0596251 9.22747 -0.0596251 8.77222 0.178875 8.4291C3.29665 3.94363 8.78716 0.999847 15 0.999847C16.1794 0.999847 17.3327 1.10592 18.4487 1.30849L16.677 3.08018C16.1264 3.0271 15.5669 2.99985 15 2.99985C9.68869 2.99985 5.03017 5.39172 2.23983 8.99985C3.45281 10.5683 5.01882 11.907 6.83801 12.9192L5.37402 14.3832Z" fill="#FEDD3D"/>
<path d="M14.2923 13.9502C14.5235 13.9829 14.7598 13.9998 15 13.9998C17.7614 13.9998 20 11.7613 20 8.99985C20 8.75963 19.9831 8.52336 19.9503 8.29218L14.2923 13.9502Z" fill="#FEDD3D"/>
<path d="M15.7077 4.04954C15.4765 4.01679 15.2402 3.99985 15 3.99985C12.2386 3.99985 10 6.23842 10 8.99985C10 9.24007 10.0169 9.47634 10.0497 9.70751L15.7077 4.04954Z" fill="#FEDD3D"/>
<path fill-rule="evenodd" clip-rule="evenodd" d="M23.2929 0.706956C23.6834 1.09748 23.6834 1.73064 23.2929 2.12117L7.91421 17.4141C7.52369 17.8046 6.89052 17.8046 6.5 17.4141C6.10948 17.0235 6.10948 16.3904 6.5 15.9998L21.8787 0.706956C22.2692 0.316431 22.9024 0.316431 23.2929 0.706956Z" fill="#FEDD3D"/>
</svg>
