<svg width="18" height="18" viewBox="0 0 18 18" fill="none" xmlns="http://www.w3.org/2000/svg">
<path d="M16.0584 12.2744V14.5414C16.0592 14.7518 16.016 14.9601 15.9315 15.153C15.8471 15.3458 15.7232 15.5189 15.5678 15.6612C15.4124 15.8034 15.229 15.9117 15.0292 15.9792C14.8294 16.0466 14.6178 16.0716 14.4078 16.0527C12.0779 15.8 9.83985 15.0055 7.87353 13.7328C6.04411 12.5727 4.49309 11.0247 3.33061 9.19891C2.051 7.22757 1.25468 4.98312 1.00615 2.6474C0.987225 2.43843 1.01211 2.22783 1.07921 2.02899C1.14631 1.83015 1.25417 1.64743 1.3959 1.49247C1.53764 1.33751 1.71015 1.2137 1.90246 1.12893C2.09476 1.04415 2.30265 1.00027 2.51288 1.00007H4.78434C5.15179 0.996464 5.50802 1.12633 5.78663 1.36546C6.06524 1.60459 6.24722 1.93667 6.29865 2.2998C6.39452 3.02527 6.57232 3.7376 6.82866 4.42318C6.93053 4.69365 6.95257 4.98759 6.89219 5.27018C6.8318 5.55277 6.69151 5.81216 6.48794 6.01761L5.52635 6.97729C6.6042 8.8691 8.1737 10.4355 10.0693 11.5112L11.0309 10.5515C11.2367 10.3484 11.4966 10.2084 11.7798 10.1481C12.0629 10.0878 12.3574 10.1098 12.6285 10.2115C13.3154 10.4673 14.0291 10.6448 14.7561 10.7404C15.1239 10.7922 15.4598 10.9771 15.6999 11.26C15.94 11.5428 16.0676 11.9038 16.0584 12.2744Z" stroke="white" stroke-width="2" stroke-linecap="round" stroke-linejoin="round"/>
</svg>
