<svg width="18" height="14" viewBox="0 0 18 14" fill="none" xmlns="http://www.w3.org/2000/svg">
<path d="M0 3C0 1.34315 1.34315 0 3 0H9C10.6569 0 12 1.34315 12 3C12 3.55228 11.5523 4 11 4C10.4477 4 10 3.55228 10 3C10 2.44772 9.55228 2 9 2H3C2.44772 2 2 2.44772 2 3V11C2 11.5523 2.44772 12 3 12H9C9.55228 12 10 11.5523 10 11C10 10.4477 10.4477 10 11 10C11.5523 10 12 10.4477 12 11C12 12.6569 10.6569 14 9 14H3C1.34315 14 0 12.6569 0 11V3Z" fill="#FEDD3D"/>
<path d="M7 7C7 6.44772 7.44772 6 8 6H14.4142L13.1213 4.70711C12.7307 4.31658 12.7307 3.68342 13.1213 3.29289C13.5118 2.90237 14.145 2.90237 14.5355 3.29289L17.3639 6.12132C17.7544 6.51184 17.7544 7.14501 17.3639 7.53553L14.5355 10.364C14.145 10.7545 13.5118 10.7545 13.1213 10.364C12.7307 9.97344 12.7307 9.34027 13.1213 8.94975L14.071 8H8C7.44772 8 7 7.55228 7 7Z" fill="#FEDD3D"/>
</svg>
