<svg width="30" height="16" viewBox="0 0 30 16" fill="none" xmlns="http://www.w3.org/2000/svg">
<path fill-rule="evenodd" clip-rule="evenodd" d="M15 14C9.68869 14 5.03017 11.6081 2.23983 8C5.03017 4.39187 9.68869 2 15 2C20.3113 2 24.9698 4.39187 27.7602 8C24.9698 11.6081 20.3113 14 15 14ZM15 0C8.78716 0 3.29665 2.94378 0.178875 7.42925C-0.0596251 7.77238 -0.0596251 8.22762 0.178875 8.57075C3.29665 13.0562 8.78716 16 15 16C21.2128 16 26.7034 13.0562 29.8211 8.57075C30.0596 8.22762 30.0596 7.77238 29.8211 7.42925C26.7034 2.94378 21.2128 0 15 0ZM12 8C12 6.34315 13.3431 5 15 5C16.6569 5 18 6.34315 18 8C18 9.65685 16.6569 11 15 11C13.3431 11 12 9.65685 12 8ZM15 3C12.2386 3 10 5.23858 10 8C10 10.7614 12.2386 13 15 13C17.7614 13 20 10.7614 20 8C20 5.23858 17.7614 3 15 3Z" fill="#07CEFD"/>
</svg>
