<svg width="387" height="294" viewBox="0 0 387 294" fill="none" xmlns="http://www.w3.org/2000/svg">
<path d="M385.18 123.715C384.603 120.601 380.85 118.868 377.996 119.638C374.724 120.537 373.345 123.715 373.923 126.829C374.179 128.177 374.404 129.526 374.596 130.874C374.596 130.906 374.596 130.938 374.596 130.97C374.628 131.259 374.66 131.548 374.692 131.805C374.789 132.64 374.885 133.474 374.949 134.309C375.205 137.134 375.366 139.959 375.366 142.816C375.398 145.641 375.302 148.498 375.077 151.323C374.981 152.671 374.853 154.052 374.692 155.4C374.628 155.946 374.564 156.524 374.5 157.069C374.5 157.133 374.468 157.198 374.468 157.294C374.404 157.808 374.307 158.321 374.243 158.867C373.345 164.356 372.03 169.782 370.33 175.079C369.464 177.711 368.502 180.343 367.412 182.912C367.38 182.976 366.995 183.843 366.93 183.971C366.642 184.645 366.321 185.319 366 185.961C365.359 187.277 364.717 188.594 364.044 189.91C362.568 192.703 360.997 195.431 359.265 198.064C357.597 200.6 355.576 203.457 354.069 205.287C352.113 207.726 351.664 211.129 354.069 213.537C356.122 215.592 360.323 216.009 362.312 213.537C377.868 194.147 386.688 169.91 386.976 145.031C387.137 137.872 386.463 130.746 385.18 123.715Z" fill="white"/>
<path d="M369.721 150.521C367.38 209.428 319.013 219.348 319.013 219.348C319.013 219.348 323.535 232.092 314.587 248.175C312.438 252.028 309.551 256.073 305.606 260.15C297.909 268.207 286.266 276.49 268.882 284.066C249.028 292.701 230.233 294.435 213.619 292.573C202.907 291.385 193.124 288.688 184.529 285.414C161.5 276.65 147.099 263.617 147.099 263.617C147.099 263.617 125.289 277.003 95.7812 267.661C87.5383 265.061 80.867 260.984 75.5428 256.426C69.8978 251.578 65.7283 246.217 62.7454 241.402C57.9344 233.665 56.2024 227.437 56.2024 227.437C56.2024 227.437 53.7969 227.052 50.2047 225.736C47.1577 224.645 43.2127 222.879 39.1393 220.15C32.5001 215.688 25.476 208.658 21.2423 197.679C17.5218 188.048 17.4576 178.995 18.9651 171.259C21.8517 156.395 30.5757 146.347 30.5757 146.347C30.5757 146.347 29.8059 144.453 28.9399 141.083C27.7853 136.46 26.4703 129.044 26.9514 120.12C27.3042 113.539 28.5871 106.123 31.602 98.3546C34.8094 90.0401 40.0053 81.3404 48.0558 72.8334C49.05 71.8061 50.0443 70.8109 51.0386 69.8479C57.5495 63.6521 64.3491 59.222 71.0525 56.1081C80.8349 51.5817 90.4249 49.8482 98.6999 49.463C104.762 49.1741 110.118 49.6235 114.32 50.2655C120.221 51.1644 123.813 52.3843 123.813 52.3843C123.813 52.3843 127.181 24.7122 160.826 9.7847C164.322 8.2438 168.171 6.7992 172.341 5.57932C178.178 3.8779 184.689 2.49751 192.002 1.63075C192.515 1.56655 193.06 1.50234 193.573 1.43814C197.358 1.02081 201.014 0.796097 204.51 0.763995C215.961 0.603484 226.064 2.24069 234.852 4.87307C240.401 6.54239 245.436 8.62903 249.959 10.9404C272.121 22.433 282.289 39.1261 282.289 39.1261C282.289 39.1261 297.941 33.8934 312.47 46.028C312.502 46.0602 312.566 46.0923 312.598 46.1244C317.441 50.2013 320.232 55.2414 321.771 60.153C324.914 70.0084 323.086 79.3822 323.086 79.3822C323.086 79.3822 338.065 82.0467 351.086 94.9839C355.609 99.4782 359.875 105.192 363.178 112.48C364.333 114.984 365.359 117.68 366.257 120.569C366.514 121.372 366.738 122.174 366.963 123.009C369.048 130.746 370.138 139.863 369.721 150.521Z" fill="white"/>
<path d="M24.129 209.235C22.846 207.983 21.6272 206.699 20.5046 205.287C20.4405 205.222 20.3443 205.094 20.2801 204.998C19.9915 204.613 19.7349 204.227 19.4462 203.842C18.933 203.104 18.4519 202.365 18.0029 201.595C17.0728 200.054 16.2709 198.481 15.5332 196.844C15.5012 196.748 15.437 196.619 15.405 196.523C15.2446 196.073 15.0521 195.656 14.8918 195.207C14.571 194.372 14.3145 193.505 14.0579 192.671C13.5768 191.065 13.1919 189.396 12.8711 187.759C12.7749 187.309 12.7108 186.86 12.6466 186.411C12.6466 186.314 12.6146 186.154 12.6146 186.057C12.5183 185.159 12.4542 184.292 12.4221 183.393C12.3259 181.595 12.358 179.83 12.4863 178.032C12.5183 177.55 12.5825 177.037 12.6146 176.555C12.6466 176.202 12.7429 175.689 12.6466 176.331C12.807 175.335 12.9994 174.372 13.224 173.409C13.8975 170.424 12.3259 166.957 9.15062 166.218C6.19985 165.544 2.70384 167.117 1.96615 170.295C-1.81853 187.181 3.40946 205.447 15.8861 217.485C18.1633 219.668 21.8838 219.733 24.129 217.485C26.342 215.27 26.4062 211.418 24.129 209.235Z" fill="white"/>
</svg>
