<svg width="336" height="268" viewBox="0 0 336 268" fill="none" xmlns="http://www.w3.org/2000/svg">
<path d="M328.478 110.684C324.836 110.684 321.836 107.77 321.749 104.111C321.749 103.903 321.368 93.5318 315.87 79.9698C308.517 61.8466 295.943 46.8451 278.496 35.3816C275.392 33.3351 274.525 29.1729 276.571 26.0685C278.618 22.9642 282.78 22.097 285.884 24.1435C333.664 55.5339 335.155 101.874 335.207 103.833C335.277 107.545 332.328 110.632 328.617 110.701C328.582 110.684 328.53 110.684 328.478 110.684Z" fill="white"/>
<path d="M319.651 133.611C319.651 204.907 296.793 257.75 218.473 257.75C140.153 257.75 22.6736 203.693 22.6736 132.397C22.6736 61.1008 68.181 -19.9072 177.839 4.51143C254.286 21.542 319.651 62.3148 319.651 133.611Z" fill="white"/>
<path d="M37.7617 215.555C36.0274 215.555 34.2758 214.879 32.9578 213.544C-7.10401 172.754 1.23786 127.142 1.6194 125.217C2.33045 121.575 5.86837 119.199 9.51035 119.893C13.1523 120.604 15.5283 124.124 14.8346 127.766C14.7999 127.974 12.9616 138.189 15.4589 152.601C18.8061 171.869 27.9284 189.194 42.5656 204.092C45.1671 206.745 45.1324 211.012 42.4789 213.613C41.1609 214.914 39.4613 215.555 37.7617 215.555Z" fill="white"/>
<path d="M266.929 268C263.738 268 260.911 265.728 260.321 262.485C259.645 258.843 262.056 255.34 265.715 254.663C267.137 254.386 300.643 247.692 309.159 214.706C310.078 211.116 313.754 208.948 317.362 209.867C320.952 210.804 323.12 214.463 322.2 218.07C311.5 259.502 269.947 267.584 268.178 267.896C267.744 267.965 267.345 268 266.929 268Z" fill="white"/>
</svg>
