<svg width="20" height="21" viewBox="0 0 20 21" fill="none" xmlns="http://www.w3.org/2000/svg">
<circle cx="10" cy="10" r="9.5" stroke="#DB2128"/>
<path d="M10.5733 10.592V12.192C10.5733 12.4267 10.5093 12.6133 10.3813 12.752C10.2533 12.88 10.0826 12.944 9.86931 12.944C9.65598 12.944 9.48531 12.88 9.35731 12.752C9.22931 12.6133 9.16531 12.4267 9.16531 12.192V10.384C9.16531 10.0107 9.21865 9.76533 9.32531 9.648C9.43198 9.53067 9.75198 9.41867 10.2853 9.312C11.2666 9.10933 11.7573 8.53333 11.7573 7.584C11.7573 7.05067 11.5813 6.624 11.2293 6.304C10.888 5.984 10.4453 5.824 9.90131 5.824C8.97331 5.824 8.35465 6.26133 8.04531 7.136C7.92798 7.488 7.71998 7.664 7.42131 7.664C7.22931 7.664 7.06398 7.59467 6.92531 7.456C6.78665 7.31733 6.72265 7.14133 6.73331 6.928C6.76531 6.24533 7.09598 5.67467 7.72531 5.216C8.36531 4.74667 9.07465 4.512 9.85331 4.512C10.824 4.512 11.6346 4.79467 12.2853 5.36C12.936 5.91467 13.2613 6.61333 13.2613 7.456C13.2613 8.29867 13.016 8.992 12.5253 9.536C12.0453 10.0693 11.3946 10.4213 10.5733 10.592ZM9.29331 15.856C9.13331 15.696 9.05331 15.504 9.05331 15.28C9.05331 15.056 9.13331 14.864 9.29331 14.704C9.45331 14.544 9.64531 14.464 9.86931 14.464C10.0933 14.464 10.2853 14.544 10.4453 14.704C10.6053 14.864 10.6853 15.056 10.6853 15.28C10.6853 15.504 10.6053 15.696 10.4453 15.856C10.2853 16.016 10.0933 16.096 9.86931 16.096C9.64531 16.096 9.45331 16.016 9.29331 15.856Z" fill="#DB2128"/>
</svg>
